<?xml version="1.0" encoding="utf-8"?>
<!-- Generator: Adobe Illustrator 24.2.1, SVG Export Plug-In . SVG Version: 6.00 Build 0)  -->
<svg version="1.1" id="Layer_1" xmlns="http://www.w3.org/2000/svg" xmlns:xlink="http://www.w3.org/1999/xlink" x="0px" y="0px"
	 viewBox="0 0 328 328" style="enable-background:new 0 0 328 328;" xml:space="preserve">
<style type="text/css">
	.st0{fill:#9C84EF;}
	.st1{fill:#F47B67;}
	.st2{fill:#45DDC0;}
</style>
<g>
	<path d="M164,4c42.74,0,82.92,16.64,113.14,46.86C307.36,81.08,324,121.26,324,164s-16.64,82.92-46.86,113.14
		C246.92,307.36,206.74,324,164,324s-82.92-16.64-113.14-46.86C20.64,246.92,4,206.74,4,164S20.64,81.08,50.86,50.86
		C81.08,20.64,121.26,4,164,4 M164,0C73.43,0,0,73.43,0,164s73.43,164,164,164s164-73.43,164-164S254.57,0,164,0L164,0z"/>
</g>
<polygon class="st0" points="44.6,159.54 112.65,286.86 260.6,255.82 134.39,233.2 "/>
<polygon class="st1" points="38.04,135.55 142.19,235.52 273.24,160.18 146.24,177.77 "/>
<polygon class="st2" points="35.41,128.66 172.28,174.6 258.62,50.52 151.28,120.65 "/>
</svg>
