<?xml version="1.0" encoding="utf-8"?>
<!-- Generator: Adobe Illustrator 24.2.1, SVG Export Plug-In . SVG Version: 6.00 Build 0)  -->
<svg version="1.1" id="Layer_1" xmlns="http://www.w3.org/2000/svg" xmlns:xlink="http://www.w3.org/1999/xlink" x="0px" y="0px"
	 viewBox="0 0 269 330" style="enable-background:new 0 0 269 330;" xml:space="preserve">
<style type="text/css">
	.st0{fill:#9C84EF;}
	.st1{fill:#F47B67;}
	.st2{fill:#45DDC0;}
</style>
<path class="st0" d="M0.01,293C0,293.16,0,293.33,0,293.5V293H0.01z"/>
<g>
	<path class="st0" d="M225,170.09v1.2c0-0.41,0-0.82-0.02-1.2H225z"/>
	<path class="st0" d="M225,171.29V259H64v-87.71c0-0.41,0-0.82,0.02-1.2c0.62-43.9,36.43-79.3,80.48-79.3
		c11.53,0,22.52,2.43,32.44,6.82V65.2c0-4.45,3.6-8.05,8.05-8.05h5.53c4.45,0,8.05,3.6,8.05,8.05v46.47
		c15.96,14.47,26.07,35.25,26.41,58.42C225,170.47,225,170.88,225,171.29z"/>
	<path class="st1" d="M121.19,158.07h-20.67c-1.59,0-2.88-1.29-2.88-2.88v-20.67c0-1.59,1.29-2.88,2.88-2.88h20.67
		c1.59,0,2.88,1.29,2.88,2.88v20.67C124.07,156.78,122.78,158.07,121.19,158.07z"/>
	<path class="st1" d="M183.67,158.07H163c-1.59,0-2.88-1.29-2.88-2.88v-20.67c0-1.59,1.29-2.88,2.88-2.88h20.67
		c1.59,0,2.88,1.29,2.88,2.88v20.67C186.55,156.78,185.26,158.07,183.67,158.07z"/>
	<path class="st2" d="M184.08,206.13c-6.07,16.82-22.17,28.84-41.08,28.84c-18.54,0-34.37-11.55-40.69-27.84
		c12,6.05,25.57,9.45,39.93,9.45C157.37,216.58,171.6,212.8,184.08,206.13z"/>
</g>
</svg>
