<?xml version="1.0" encoding="utf-8"?>
<!-- Generator: Adobe Illustrator 24.2.1, SVG Export Plug-In . SVG Version: 6.00 Build 0)  -->
<svg version="1.1" id="Layer_1" xmlns="http://www.w3.org/2000/svg" xmlns:xlink="http://www.w3.org/1999/xlink" x="0px" y="0px"
	 viewBox="0 0 161 201.9" style="enable-background:new 0 0 161 201.9;" xml:space="preserve">
<style type="text/css">
	.st0{fill:#9C84EF;}
	.st1{fill:#F47B67;}
	.st2{fill:#45DDC0;}
</style>
<g>
	<path class="st0" d="M161,112.9v1.2C161,113.7,161,113.3,161,112.9L161,112.9z"/>
	<path class="st0" d="M161,114.1v87.7H0v-87.7c0-0.4,0-0.8,0-1.2C0.6,69,36.4,33.6,80.5,33.6c11.5,0,22.5,2.4,32.4,6.8V8
		c0-4.5,3.6-8,8.1-8h5.5c4.4,0,8.1,3.6,8.1,8v46.5c16,14.5,26.1,35.3,26.4,58.4C161,113.3,161,113.7,161,114.1z"/>
	<path class="st1" d="M57.2,100.9H36.5c-1.6,0-2.9-1.3-2.9-2.9V77.4c0-1.6,1.3-2.9,2.9-2.9h20.7c1.6,0,2.9,1.3,2.9,2.9V98
		C60.1,99.6,58.8,100.9,57.2,100.9z"/>
	<path class="st1" d="M119.7,100.9H99c-1.6,0-2.9-1.3-2.9-2.9V77.4c0-1.6,1.3-2.9,2.9-2.9h20.7c1.6,0,2.9,1.3,2.9,2.9V98
		C122.6,99.6,121.3,100.9,119.7,100.9z"/>
	<path class="st2" d="M120.1,149c-6.1,16.8-22.2,28.8-41.1,28.8c-18.5,0-34.4-11.6-40.7-27.8c12,6.1,25.6,9.4,39.9,9.4
		C93.4,159.4,107.6,155.7,120.1,149z"/>
</g>
</svg>
